<?xml version="1.0" encoding="utf-8"?>
<!-- Generator: Adobe Illustrator 24.0.3, SVG Export Plug-In . SVG Version: 6.00 Build 0)  -->
<svg version="1.1" id="Layer_1" xmlns="http://www.w3.org/2000/svg" xmlns:xlink="http://www.w3.org/1999/xlink" x="0px" y="0px"
	 viewBox="0 0 100 100" style="enable-background:new 0 0 100 100;" xml:space="preserve">
<style type="text/css">
	.st0{fill:none;}
	.st1{fill:#B22222;}
</style>
<rect class="st0" width="100" height="100"/>
<path class="st1" d="M10.97,81.21c0,0,16.74-13.91,21.38-17.34c0,0,0.2-6.05,6.45-10.28s26.82-18.55,26.42-25.21
	c-0.4-6.65-7.66-9.28-4.44-10.28c3.23-1.01,16.94,0.4,17.75,3.83c0.81,3.43,3.02,5.04,4.03,5.04s8.67,3.63,5.85,4.84
	c-2.82,1.21-6.86,2.02-8.27,2.62c-1.41,0.6,4.03,20.57-7.26,28.23s-13.31,9.48-12.5,10.49s1.41,4.23,2.42,4.03
	c1.01-0.2,8.47-2.42,10.49-0.2s1.81,5.24,1.81,5.24H52.31c0,0-1.41-2.82,0.6-3.23c2.02-0.4,3.02-3.63,0.4-5.04
	c-2.62-1.41-8.47-0.6-10.89-2.62s-3.63-0.81-3.63-0.81s-6.86,10.08-9.88,10.69c-3.02,0.6-5.24,1.01-5.44,0
	c-0.2-1.01,0.6-2.62,0.6-2.62s-0.81,1.61-4.44,2.02S10.97,81.21,10.97,81.21z"/>
</svg>
