<?xml version="1.0" encoding="utf-8"?>
<!-- Generator: Adobe Illustrator 24.0.3, SVG Export Plug-In . SVG Version: 6.00 Build 0)  -->
<svg version="1.1" id="Layer_1" xmlns="http://www.w3.org/2000/svg" xmlns:xlink="http://www.w3.org/1999/xlink" x="0px" y="0px"
	 viewBox="0 0 100 100" style="enable-background:new 0 0 100 100;" xml:space="preserve">
<style type="text/css">
	.st0{fill:#D2691E;}
</style>
<path class="st0" d="M31,86h18.29c0,0,3.4-0.88,1.86-3.4c-1.53-2.52-2.63-2.74-3.5-3.07c-0.88-0.33-1.53-0.99-1.53-0.99
	s-0.55-1.1,1.1-1.2c1.64-0.11,2.41,0,3.18,0.77c0.77,0.77,5.15,2.7,5.48,3.54c0.33,0.84,0.77,3.69,0.77,3.69H73.6
	c0,0,1.31-4.71-1.53-6.57s-4.6,0.99-8.32-3.07c-3.72-4.05-5.8-4.71-3.83-10.3c1.97-5.59,7.78-12.6,10.73-11.61s3.5,2.3,4.38,2.85
	c0.88,0.55,3.29,0.58,5.59-2.94c2.3-3.52-0.55-7.68-2.41-7.68c-1.86,0-9.75,0.88-10.73,0.88s-1.64-0.66-1.42-1.64
	c0.22-0.99,3.18-4.6,0.88-6.9c-2.3-2.3-3.61-1.42-3.5-2.08c0.11-0.66-0.55-3.07,3.4-3.5c3.94-0.44,6.02,1.2,8.65-0.77
	s3.07-4.49,1.2-4.6s-5.26,0-7.12-2.19c-1.86-2.19-4.49-3.29-4.6-4.71c-0.11-1.42-0.55-4.38-2.74-4.71c-2.19-0.33-3.61-0.88-3.4-2.74
	s0.11-3.83,0.88-4.49c0.77-0.66,3.18-3.18-0.77-1.86s-6.9,1.75-10.73,5.8s-6.68,9.2-7.45,10.08c-0.77,0.88-1.97,1.53-1.53,2.63
	c0.44,1.1,5.15,7.23,4.16,17.2s-4.16,16.21-4.82,15.22c-0.66-0.99,0-9.2-1.97-12.38c-1.97-3.18-9.75-6.46-8.43-11.39
	s4.71,0.66,4.82-2.19s-1.86-7.01-7.23-5.04S11.28,35.62,13.69,46.9s5.91,13.8,10.19,17.41c4.27,3.61,11.61,5.8,10.73,7.89
	c-0.88,2.08-5.8,9.75-5.37,11.17S29.79,86,31,86z"/>
</svg>
