<?xml version="1.0" encoding="utf-8"?>
<!-- Generator: Adobe Illustrator 24.0.3, SVG Export Plug-In . SVG Version: 6.00 Build 0)  -->
<svg version="1.1" id="Layer_1" xmlns="http://www.w3.org/2000/svg" xmlns:xlink="http://www.w3.org/1999/xlink" x="0px" y="0px"
	 viewBox="0 0 100 100" style="enable-background:new 0 0 100 100;" xml:space="preserve">
<style type="text/css">
	.st0{fill:#696969;}
</style>
<path class="st0" d="M44.3,86.72l30.89-0.44c0,0,4.7-12.65-1.63-12.47c-8.42,0.24-12.96,2.53-12.96,2.53s16.71-21.04-1.42-21.33
	c0,0-0.78-3.63,1.42-4.79c2.2-1.16,6.56-3.63,6.27-5.22c-0.29-1.6-2.47-4.5-3.34-3.99c-0.87,0.51-3.63,1.38-3.63,1.38
	s-2.61-6.82-1.6-8.27s4.93-1.45,4.93-1.45s5.08,3.19,6.38,3.19s-1.6-0.29,3.34-2.32c4.93-2.03,7.69-3.98,6.24-5.55
	c-1.45-1.56-5.37-7.08-5.66-8.09c-0.29-1.02-2.32-5.51-4.5-5.22c-2.18,0.29-6.24-3.77-9-3.19c-2.76,0.58-3.34,1.74-4.35,0.87
	c-1.02-0.87-3.19-2.61-3.92-2.47c-0.73,0.15-7.4-4.06-10.88,4.79c0,0,4.06,0.29,4.21,1.31c0.15,1.02-2.61,3.19-4.21,3.19
	c-1.6,0,1.02,6.67,8.42,6.53c0,0-11.32,19.59-10.88,33.95c0.44,14.36-3.19,13.78-4.21,12.19c-1.02-1.6-2.03-6.82,0-12.19
	C36.25,54.29,42.39,35,16.4,54c0,0,14.63-6.09,10.86,3.77s-4.93,20.6-2.03,24.81s12.04,7.25,17.56-1.6
	C42.78,80.99,40.75,86.72,44.3,86.72z"/>
</svg>
