<?xml version="1.0" encoding="utf-8"?>
<!-- Generator: Adobe Illustrator 24.0.3, SVG Export Plug-In . SVG Version: 6.00 Build 0)  -->
<svg version="1.1" id="Layer_1" xmlns="http://www.w3.org/2000/svg" xmlns:xlink="http://www.w3.org/1999/xlink" x="0px" y="0px"
	 viewBox="0 0 100 100" style="enable-background:new 0 0 100 100;" xml:space="preserve">
<style type="text/css">
	.st0{fill:#DA70D6;}
</style>
<path class="st0" d="M38.25,85.27c0,0-1.17,2.24,0,2.57c1.17,0.33,4.76,0,4.76,0s1.17-1.25,2.26-0.84s1.04,1.04,1.04,1.04h5.57
	c0,0,0.84-3.79,0-4.13c-0.84-0.33-3.85-2.09-2.09-3.01c1.76-0.92,4.76-0.75,6.35,1.76c1.59,2.51,1,4.26,1.17,4.51
	c0.17,0.25,0,0.87,0,0.87h6.52c0,0,0.5-1.79,1.67-1.29c1.17,0.5,1.59,1.29,1.59,1.29h5.6c0,0,2.59-2.29,0.75-4.38
	c-1.84-2.09-5.52-2.76-7.36-3.85c-1.84-1.09-3.59-2.93-3.68-3.68s-0.17-4.76,2.01-8.69s0.5-10.11,3.26-10.2
	c2.76-0.08,4.1,0.59,4.68,1.42c0.59,0.84,1.5,2.34,3.01,2.42c1.5,0.08,3.18-2.84,3.01-3.26c-0.17-0.42-0.5-3.26-0.5-3.26
	s2.26-4.32,1.5-5.5c-0.75-1.19-1.34-2.02-4.01-1.27c-2.67,0.75-6.27,0.93-7.11-0.29S67.5,42.54,68,42.04c0.5-0.5,0.5-2.76,2.51-2.76
	c2.01,0,10.45,0.08,11.37-0.5c0.92-0.59,0-2.34,0-2.34l1.76,1.09c0,0,3.18-0.5,2.51-7.02c-0.67-6.52-4.6-7.61-7.02-8.36
	c-2.42-0.75-2.51-1.92-2.84-4.18c-0.33-2.26-0.92-5.18-1.92-5.85s-2.34,1-2.59,1.84c-0.25,0.84-1.09,1.34-1.09,1.34
	s-0.67-1.17-2.26-1.84c-1.59-0.67-2.59-0.08-2.67,0.59c-0.08,0.67-0.25,2.34-0.25,2.34s-2.34-0.59-3.01-0.67
	c-0.67-0.08-1.34,1.09-1.34,1.09s-1.67,0.92-2.93,0.17c-1.25-0.75-1.92-1.59-2.17-2.59c-0.25-1-1.5-3.01-2.93-1.25
	s-1.92,4.1-0.59,8.28c0,0-1.34-0.5-2.42-1.67c-1.09-1.17-4.01-1.76-4.35,1s-1.17,7.11,8.86,14.29c0,0,1.25,0.84-0.17,2.01
	S42.93,44.29,39.92,51.4c-3.01,7.11-7.36,21.06-12.37,21.15c-5.02,0.08-11.54-2.42-13.12-0.92c-1.59,1.5-0.75,11.62,7.52,13.79
	s12.29,1.65,14.29,0.75S38.25,85.27,38.25,85.27z"/>
</svg>
