<?xml version="1.0" encoding="utf-8"?>
<!-- Generator: Adobe Illustrator 24.0.3, SVG Export Plug-In . SVG Version: 6.00 Build 0)  -->
<svg version="1.1" id="Layer_1" xmlns="http://www.w3.org/2000/svg" xmlns:xlink="http://www.w3.org/1999/xlink" x="0px" y="0px"
	 viewBox="0 0 100 100" style="enable-background:new 0 0 100 100;" xml:space="preserve">
<style type="text/css">
	.st0{fill:#008080;}
</style>
<path class="st0" d="M25.71,86.34h16.72c0,0,1.73-4.46,1.98-5.45s-0.74-3.1,0-3.96c0.74-0.87,1.86-3.59,4.34-3.22
	s4.34,5.17,4.71,6.3c0.37,1.13,0.62,6.34,0.62,6.34H70.8c0,0-0.62-4.87-1.98-6.34c-1.36-1.47-8.05-8.53-8.92-10.51
	c-0.87-1.98-1.36-9.04-1.24-9.54c0.12-0.5,0.62-2.85,1.61-2.85s8.3-1.73,9.91-3.84c1.61-2.11,1.98-6.19,1.36-7.31
	c-0.62-1.11-4.96-2.85-6.81-2.23c-1.86,0.62-3.34,1.36-2.97,2.6c0.37,1.24-3.22,0.87-3.22,0.37s0.87-7.8,4.21-9.17
	c3.34-1.36,8.49-4.83,9.08-4.83s4.67,2.6,5.66,2.97c0.99,0.37,2.6-3.22,2.35-6.19c-0.25-2.97-1.73-9.66-3.59-10.78
	s-8.67-3.59-10.28-2.35c-1.61,1.24-1.49,3.96-2.85,4.83c-1.36,0.87-4.71,6.32-5.7,4.96s-0.25-2.97,0.5-4.34s1.98-3.96,0.37-4.09
	c-1.61-0.12-5.2,2.35-6.19,2.97s-4.83,3.1-9.79,3.22s-16.72,2.35-22.55,10.53s-1.98,18.71,1.73,22.79s5.57,11.4,4.96,15.11
	c-0.62,3.72-0.99,4.21,0.12,3.84s5.45-1.49,5.95-2.73c0.5-1.24,3.34-1.11,1.36,1.11C31.9,76.8,27.07,80.4,25.71,86.34z"/>
</svg>
