<?xml version="1.0" encoding="utf-8"?>
<!-- Generator: Adobe Illustrator 24.0.3, SVG Export Plug-In . SVG Version: 6.00 Build 0)  -->
<svg version="1.1" id="Layer_1" xmlns="http://www.w3.org/2000/svg" xmlns:xlink="http://www.w3.org/1999/xlink" x="0px" y="0px"
	 viewBox="0 0 100 100" style="enable-background:new 0 0 100 100;" xml:space="preserve">
<style type="text/css">
	.st0{fill:none;}
	.st1{fill:#9370DB;}
</style>
<rect class="st0" width="100" height="100"/>
<path class="st1" d="M35.58,81.18h35.03c0,0,2.49-6.32-2.8-7.83c-5.29-1.51-8.1,1.29-10.74-1.2c-2.65-2.49-3.58-3.43-2.65-3.74
	c0.93-0.31,5.92-0.31,11.52-9.65s6.85-14.01,5.92-15.42c-0.93-1.4-3.89-4.2-2.34-5.92s1.81-0.31,2.62-1.71
	c0.81-1.4,0.13-10.74,0-12.77s5.79-5.92,4.7-8.56c-1.09-2.65-7.47,2.07-7.47,2.07s-13.86-1.51-19.31,0c0,0-2.18-1.91-3.74-1.91
	c-1.56,0-5.92,0-6.07,0.78s2.49,3.89,4.83,5.29c0,0-2.02,6.07-0.31,12.77c0,0-13.7,8.25-13.24,9.81S32,44.74,32,44.74l1.71-0.62
	c0,0-10.9,7.94-10.74,10.12c0.16,2.18-0.93,12.61-2.96,15.42c-2.02,2.8-5.14,4.67-5.14,6.38s-2.34,6.38,2.18,3.58l2.65-1.87
	c0,0-0.78,3.89,0.78,3.43c1.56-0.47,3.11-2.49,6.23-5.29c3.11-2.8,10.59-9.43,15.1-2.54C41.81,73.35,34.33,75.73,35.58,81.18z"/>
</svg>
