<?xml version="1.0" encoding="utf-8"?>
<!-- Generator: Adobe Illustrator 24.0.3, SVG Export Plug-In . SVG Version: 6.00 Build 0)  -->
<svg version="1.1" id="Layer_1" xmlns="http://www.w3.org/2000/svg" xmlns:xlink="http://www.w3.org/1999/xlink" x="0px" y="0px"
	 viewBox="0 0 100 100" style="enable-background:new 0 0 100 100;" xml:space="preserve">
<style type="text/css">
	.st0{fill:#FF6347;}
	.st1{fill:none;}
</style>
<g>
	<path class="st0" d="M26.02,86H50.4c0,0,1.28-5.13-2.57-5.13s-1.28-2.57-1.28-2.57s2.57-3.85,5.13-3.85s2.57,0,3.85,1.28
		s2.57,3.85,1.28,5.13c-1.28,1.28,0,5.13,0,5.13h21.82c0,0,0-7.7-8.98-7.7c0,0,0-8.98-2.57-12.83s-1.28-6.42-1.28-6.42
		s2.57-6.42,1.28-8.98c0,0,1.28,1.28,3.85,1.28s2.57,5.13,3.85,3.85c1.28-1.28,6.42-3.85,5.13-7.7c-1.28-3.85-5.13-6.42-8.98-6.42
		s-3.85-2.57-2.57-5.13c1.28-2.57,3.85-6.42,5.13-6.42s7.7-2.57,6.42-5.13c-1.28-2.57-6.42-11.55-23.1-12.83
		c0,0-5.13-10.27-11.55-5.13s5.13,12.83,6.42,12.83c0,0,1.28,7.7-3.85,14.12s-7.7,11.55-8.98,10.27s7.7-19.25-6.42-23.1
		s-15.4,1.28-12.83,2.57s6.42,0,5.13,2.57s-14.12,20.53-6.42,33.37s15.4,11.55,15.4,12.83s-5.13,6.42-6.42,7.7S24.74,80.87,26.02,86
		z"/>
	<rect class="st1" width="100" height="100"/>
</g>
</svg>
