<?xml version="1.0" encoding="utf-8"?>
<!-- Generator: Adobe Illustrator 24.0.3, SVG Export Plug-In . SVG Version: 6.00 Build 0)  -->
<svg version="1.1" id="Layer_1" xmlns="http://www.w3.org/2000/svg" xmlns:xlink="http://www.w3.org/1999/xlink" x="0px" y="0px"
	 viewBox="0 0 100 100" style="enable-background:new 0 0 100 100;" xml:space="preserve">
<style type="text/css">
	.st0{fill:none;}
	.st1{fill:#663399;}
</style>
<rect class="st0" width="100" height="100"/>
<path class="st1" d="M37.18,84.33h14.41c0,0,1.22-2.33,0-3.88c-1.22-1.55-2.77-2.66-2.11-3.44c0.67-0.78,3.33-1.11,4.1-0.44
	c0.78,0.67,0.78,1.33,1.33,2.66c0.55,1.33,2.11,5.1,2.11,5.1h15.3c0,0,0.89-1.44,0-2.88c-0.89-1.44-1.44-2.77-1.55-3.1
	c-0.11-0.33-3.33-3.88-5.65-4.66c-2.33-0.78-4.21-2.33-4.21-3.44c0-1.11,3.88-6.98,4.54-11.86c0.67-4.88,0.33-5.65,2-5.87
	c1.66-0.22,3.33-0.44,4.32,0.89c1,1.33,2.77,3.77,3.66,3.21c0.89-0.55,5.32-6.54,4.54-8.09c-0.78-1.55,0.51-1.88,0.09-2.66
	s-1.98-6.32-3.53-5.21c-1.55,1.11-5.54,1.99-8.2,1.22c-2.66-0.78-0.78-6.54,1.55-8.87c0,0,8.2,0.55,11.53-0.67
	c3.33-1.22,5.54-4.32,5.54-5.21c0-0.89-1.88-3.88-5.54-4.1c-3.66-0.22-4.66-1.33-4.66-1.33s-4.66-9.42-13.75-7.65
	s-9.75,7.98-9.87,11.42s1.33,7.43-1.44,9.09s-13.19,7.76-14.52,17.18c-1.33,9.42-0.11,12.19-3.21,12.19s-20.4,0.22-23.72,5.1
	c-3.33,4.88,3.66,12.62,11.97,13.35s11.08,0.18,14.85-5.59c3.77-5.76,1.88-1.33,1.55-0.44C38.29,77.24,36.63,82.67,37.18,84.33z"/>
</svg>
