<?xml version="1.0" encoding="utf-8"?>
<!-- Generator: Adobe Illustrator 24.0.3, SVG Export Plug-In . SVG Version: 6.00 Build 0)  -->
<svg version="1.1" id="Layer_1" xmlns="http://www.w3.org/2000/svg" xmlns:xlink="http://www.w3.org/1999/xlink" x="0px" y="0px"
	 viewBox="0 0 100 100" style="enable-background:new 0 0 100 100;" xml:space="preserve">
<style type="text/css">
	.st0{fill:none;}
	.st1{fill:#D2B48C;}
</style>
<rect class="st0" width="100" height="100"/>
<path class="st1" d="M19.46,85.22c0,0,3.67,2.06,9.9,1.8c6.24-0.26,10.29-3.15,10.29-3.15v2.77h12.99c0,0,1.61-2.57-0.32-3.67
	c-1.93-1.09-3.09-0.96-2.64-1.74s1.61-3.09,5.02-2.32c3.41,0.77,3.09,1.54,3.34,3.15c0.26,1.61,1.16,4.5,1.16,4.5h14.47
	c0,0,1.93-2.57-1.35-5.02c-3.28-2.44-5.92-5.15-6.95-7.85c-1.03-2.7-2.19-3.47-2.19-3.47s3.22-2.96,3.02-6.62
	c-0.19-3.67,0.45-3.92,1.22-3.99c0.77-0.06,3.47,0.13,4.24,1.16c0.77,1.03,1.38,1.93,2.56,1.8c1.17-0.13,1.69-1.29,2.27-1.8
	c0.58-0.51,3.22-4.82,0-7.91s-7.07-3.34-9-3.09c-1.93,0.26-1.74-6.62,4.69-11.38s11.58-11.38,10.87-13.57
	c-0.71-2.19-3.09-2.19-3.6-3.09c-0.51-0.9-0.96-2.64-2.12-4.82c-1.16-2.19-4.82-5.15-10.23-4.82c-5.4,0.32-6.82,4.12-8.55,3.92
	c-1.74-0.19-4.12-0.45-5.02-0.13c-0.9,0.32-0.77,3.41-0.32,4.18s-1.03,7.85,0.32,12.48c1.35,4.63-5.98,11.9-8.49,12.67
	c-2.51,0.77-10.1,3.79-10.23,12.67S35.61,70.23,34,72.29c-1.61,2.06-6.95,8.3-11.83,9.9C17.28,83.8,18.82,84.38,19.46,85.22z"/>
</svg>
