<?xml version="1.0" encoding="utf-8"?>
<!-- Generator: Adobe Illustrator 24.0.3, SVG Export Plug-In . SVG Version: 6.00 Build 0)  -->
<svg version="1.1" id="Layer_1" xmlns="http://www.w3.org/2000/svg" xmlns:xlink="http://www.w3.org/1999/xlink" x="0px" y="0px"
	 viewBox="0 0 100 100" style="enable-background:new 0 0 100 100;" xml:space="preserve">
<style type="text/css">
	.st0{fill:none;}
	.st1{fill:#2F4F4F;}
</style>
<rect class="st0" width="100" height="100"/>
<path class="st1" d="M38.53,84h12.72c0,0,4.17-2.27,2.32-5.12c-1.85-2.86-4.48-1.85-2.32-3.19c2.15-1.34,5.68,1.51,6.44,3.44
	S58.69,84,58.69,84H72.3c0,0,3.7-1.26,1.76-4.87c-1.93-3.61-5.63-4.2-7.73-4.7s-3.95-0.84-2.94-2.69c1.01-1.85,5.71-3.53,5.54-11.51
	s-1.93-8.82,0.25-8.9s8.99,1.09,12.1,0s1.51-1.6,0.92-1.93c-0.59-0.34,2.94-0.84,1.76-1.93c-1.18-1.09-1.43-1.51-1.43-1.51
	s3-0.5,1.67-1.6c-1.33-1.09-3.77-3.36-7.05-2.44c-3.28,0.92-7.14-0.08-8.06-1.18s-2.02-5.46-0.84-6.55
	c1.18-1.09,14.37-4.96,17.39-9.58s-2.44-3.11-3.19-3.11c-0.76,0-2.94,0.08-4.37-1.09c-1.43-1.18-6.22-8.32-11.09-8.4
	s-6.38,1.68-7.31,1.93c-0.92,0.25-7.22,2.44-7.31,4.37s1.26,2.44,1.26,2.44s-1.43,2.02,0.17,6.38s-2.57,6.72-2.57,6.72
	S38.86,40.4,36.43,53.51s-2.02,17.22-6.97,21c-4.96,3.78-12.35,0.76-14.53-2.86c-2.18-3.61-2.86-3.86-3.28-1.18
	C11.22,73.16,12.48,84.25,23.99,84s15.21-8.15,15.21-8.15S36.01,83.5,38.53,84z"/>
</svg>
