<?xml version="1.0" encoding="utf-8"?>
<!-- Generator: Adobe Illustrator 24.0.3, SVG Export Plug-In . SVG Version: 6.00 Build 0)  -->
<svg version="1.1" id="Layer_1" xmlns="http://www.w3.org/2000/svg" xmlns:xlink="http://www.w3.org/1999/xlink" x="0px" y="0px"
	 viewBox="0 0 100 100" style="enable-background:new 0 0 100 100;" xml:space="preserve">
<style type="text/css">
	.st0{fill:#ADD8E6;}
</style>
<path class="st0" d="M47.14,87.64h12.68c0,0-5.78-7-5.28-8.32s0.61-2.84,2.23-1.72s7.2,10.04,7.2,10.04h12.58
	c0,0-1.01-6.19-2.43-6.7s-2.94,0.3-3.45,0s-1.62-4.26-1.83-5.88s0.2-2.43,0.41-2.84c0.2-0.41,2.74-2.94,2.33-3.96
	c-0.41-1.01-1.83-4.36-0.81-4.97c1.01-0.61,10.04-4.57,8.93-12.07c-1.12-7.51-3.65-6.19-3.96-5.68c-0.3,0.51-5.28,6.49-6.59,6.39
	s-2.13-6.73-2.84-6.81c-0.71-0.09-0.81-0.69,0.2-0.9c1.01-0.2,4.97-2.23,5.68-2.94c0.71-0.71,6.39-1.83,5.99-3.55
	c-0.41-1.72-9.54-10.85-9.54-10.85s0.1-15.62-7.41-19.88c0,0-6.7,3.86-7,11.16c0,0-0.3,1.01-1.83,0.81
	c-1.52-0.2-7.1-15.22-25.06-8.22c0,0-2.33,10.65,12.88,19.99c0,0,0,9.84,1.12,10.55c1.12,0.71,2.74,1.22,2.74,1.22
	s-9.74,10.35-10.96,15.42c-1.22,5.07,3.25,11.57,3.75,12.17c0.51,0.61,3.45,9.64-5.28,9.74s-8.22-10.75-7.3-14.3
	c0.91-3.55-2.54,0-3.04,2.13c-0.51,2.13-2.74,19.48,12.58,19.99c0,0,8.83,1.93,10.45-3.14S47.14,87.64,47.14,87.64z"/>
</svg>
