<?xml version="1.0" encoding="utf-8"?>
<!-- Generator: Adobe Illustrator 24.0.3, SVG Export Plug-In . SVG Version: 6.00 Build 0)  -->
<svg version="1.1" id="Layer_1" xmlns="http://www.w3.org/2000/svg" xmlns:xlink="http://www.w3.org/1999/xlink" x="0px" y="0px"
	 viewBox="0 0 100 100" style="enable-background:new 0 0 100 100;" xml:space="preserve">
<style type="text/css">
	.st0{fill:none;}
	.st1{fill:#4682B4;}
</style>
<rect class="st0" width="100" height="100"/>
<path class="st1" d="M36.81,86h15.83c0,0-0.79-5.2-3.39-6.11c-2.6-0.9-4.18-2.6-3.51-3.62c0.68-1.02,3.28-2.94,3.28-2.94
	s3.73,3.39,5.99,4.41c2.26,1.02,1.92,1.36,1.81,1.92c-0.11,0.57-0.79,4.75,1.02,6.33h17.64c0,0-1.36-5.88-3.05-6.33
	s-4.52-1.81-6.33-2.83s-4.86-2.15-5.32-2.6c-0.45-0.45-0.45-0.45-0.45-0.45s2.04-5.77,1.92-6.56c-0.11-0.79,10.29-6.67,10.86-13.68
	c0.57-7.01-1.81-11.2-2.94-13.34c-1.13-2.15-1.81-3.28-0.9-3.85c0.9-0.57,5.43-6.9,9.39-7.35c3.96-0.45,9.73-0.11,9.39-1.92
	c-0.34-1.81-2.37-5.54-5.54-5.88c-3.17-0.34-7.01-1.7-9.16-3.73c-2.15-2.04-9.95-4.52-12.78-1.47s-3.85,9.61-6.11,10.29
	c-2.26,0.68-11.87,3.17-16.06,17.08s-4.3,16.74-8.03,20.02S13.51,78.2,13.74,80.57c0.23,2.37,1.47,2.37,1.47,2.37s0,1.47,1.13,2.04
	c1.13,0.57,5.32-0.23,7.01-1.81c0,0-0.9,2.04,1.47,2.04s5.54-0.11,10.4-5.09C35.23,80.12,37.49,84.76,36.81,86z"/>
</svg>
