<?xml version="1.0" encoding="utf-8"?>
<!-- Generator: Adobe Illustrator 24.0.3, SVG Export Plug-In . SVG Version: 6.00 Build 0)  -->
<svg version="1.1" id="Layer_1" xmlns="http://www.w3.org/2000/svg" xmlns:xlink="http://www.w3.org/1999/xlink" x="0px" y="0px"
	 viewBox="0 0 100 100" style="enable-background:new 0 0 100 100;" xml:space="preserve">
<style type="text/css">
	.st0{fill:none;}
	.st1{fill:#ADFF2F;}
</style>
<rect class="st0" width="100" height="100"/>
<path class="st1" d="M48.06,80.5h13.46c0,0,1.58-0.79,0-2.71c-1.58-1.92-2.94-2.94-3.51-3.28c-0.57-0.34,0.9-2.15,3.73-1.81
	c2.83,0.34,5.54,2.11,5.77,3.88c0.23,1.77,0,3.92,0,3.92h12.78c0,0,2.83-0.83,2.71-3.92c-0.11-3.09-2.04-4.19-4.18-3.92
	c-2.15,0.27-3.62,0.9-5.99-0.04c-2.37-0.94-3.84-3.58-3.84-3.58s8.37-4.25,3.84-16.47c0,0,9.39-1.92,10.74-6.45
	s-1.81-7.12-5.09-6.11c0,0-0.9-2.04-2.49-1.24c-1.58,0.79-3.17,2.71-3.05,4.07s0.23,3.62-3.96,4.52c0,0-6.22-4.44-6.11-8.78
	c0.11-4.34,4.98-7.39,5.65-7.85s7.8-3.51,7.69-5.88c0,0,3.62-0.68,3.28-2.71c-0.34-2.04-2.71-4.18-5.65-5.65
	c0,0,0.23-4.07-3.17-3.73c-3.39,0.34-3.05,2.15-3.05,2.15s-6.78-0.45-10.06,2.49s-5.54,4.64-6.11,8.37
	c-0.57,3.73,0.57,5.2-0.45,7.01c-1.02,1.81-1.24,2.15-1.36,3.73c-0.11,1.58-0.79,6.78,1.47,11.2c2.26,4.41,0.11,15.27-5.43,20.58
	s-10.63,3.51-11.65,2.83c-1.02-0.68-13.57-6.11-19.9,9.39c0,0,7.58-5.65,11.53-3.84s11.53,5.77,18.88,2.49
	C44.56,79.14,45.92,77.67,48.06,80.5z"/>
</svg>
